<?xml version="1.0" standalone="no"?><!DOCTYPE svg PUBLIC "-//W3C//DTD SVG 1.1//EN" "http://www.w3.org/Graphics/SVG/1.1/DTD/svg11.dtd"><svg t="1677244016278" class="icon" viewBox="0 0 1024 1024" version="1.1" xmlns="http://www.w3.org/2000/svg" p-id="7553" xmlns:xlink="http://www.w3.org/1999/xlink" width="200" height="200"><path d="M234.0864 65.8432L51.2 234.0352l168.2432 182.8864 563.2 607.0784 182.8352-160.9216zM124.3648 234.0352l102.4-87.7568 102.4 102.4-102.4 87.7568-102.4-102.4z m248.6784 599.808l-29.2352 65.8432-65.8432 7.3216 51.2 43.8784L314.5216 1024l58.5216-29.2352L431.5648 1024l-7.3216-73.1648 43.8784-51.2-65.8432-7.3216-29.2352-58.5216z m-226.7648-299.8784l-43.8784 102.4-102.4 14.6432 73.1648 73.1648-14.6432 109.7216 87.7568-51.2 87.7568 51.2-14.6432-109.7216 73.1648-73.1648-102.4-14.6432zM819.2 0l-58.5216 131.6352L621.7216 153.6l102.4 102.4-21.9648 146.2784 124.3648-73.1648 124.3648 73.1648L928.9216 256 1024 153.6l-138.9568-21.9648L819.2 0z" fill="#4096ff" p-id="7554"></path></svg>