<?xml version="1.0" standalone="no"?><!DOCTYPE svg PUBLIC "-//W3C//DTD SVG 1.1//EN" "http://www.w3.org/Graphics/SVG/1.1/DTD/svg11.dtd"><svg t="1677243379398" class="icon" viewBox="0 0 1024 1024" version="1.1" xmlns="http://www.w3.org/2000/svg" p-id="1705" xmlns:xlink="http://www.w3.org/1999/xlink" width="200" height="200"><path d="M597.728 511.232c0-45.92-38.4-83.136-85.728-83.136-47.36 0-85.728 37.216-85.728 83.136 0 45.888 38.4 83.104 85.728 83.104 47.36 0 85.728-37.216 85.728-83.104z" fill="#4096ff" p-id="1706"></path><path d="M790.4 356.928c18.112-71.36 40.864-203.616-39.36-248.448-79.84-44.64-183.744 40.896-238.592 92.256-54.72-50.848-161.536-136-241.664-91.04-79.808 44.8-55.2 174.88-36.704 246.656-74.464 20.48-202.08 64.64-202.08 154.88 0 89.952 127.488 138.016 201.504 158.496-18.56 72.16-41.952 200.384 37.952 245.088 80.448 44.96 186.944-38.208 242.304-90.112 55.232 51.648 158.144 135.36 237.984 90.56 80.128-44.992 59.264-175.488 40.736-247.68 71.744-20.512 199.52-67.52 199.52-156.352 0-89.376-128.32-133.888-201.6-154.304z m-9.088 272.416a916.8 916.8 0 0 0-48.608-117.92 916 916 0 0 0 46.72-116.192c53.728 15.104 171.552 49.6 171.552 116 0 67.008-113.056 101.856-169.664 118.112z m-50.112 251.488c-59.584 33.44-148.096-46.592-188.864-84.64a939.264 939.264 0 0 0 80.448-99.072c46.4-4 90.272-10.528 130.048-19.424 13.024 51.04 38.208 169.536-21.632 203.136z m-439.232-0.48c-59.616-33.312-32.352-147.712-18.688-200.896 39.296 8.448 82.848 14.496 129.344 18.176 26.56 36.224 54.4 69.536 82.432 98.72-34.656 32.48-133.216 117.472-193.088 84zM72.96 511.232c0-67.264 117.152-101.536 172.096-116.576a936.224 936.224 0 0 0 46.784 117.536 950.048 950.048 0 0 0-47.36 119.232c-52.384-14.528-171.52-52.896-171.52-120.192zM291.328 144.128c59.84-33.6 152.64 48.192 192.384 84.992a959.04 959.04 0 0 0-81.792 98.112c-45.12 4.064-88.352 10.56-128.096 19.328-14.912-57.92-42.272-168.896 17.504-202.432z m360.8 226.336c30.624 3.744 60 8.736 87.552 14.848-8.288 25.696-18.592 52.576-30.72 80.128a1317.28 1317.28 0 0 0-56.832-94.976z m-139.68-112.928c18.912 19.872 37.856 42.048 56.512 66.112a1244.704 1244.704 0 0 0-113.472 0 884.832 884.832 0 0 1 56.96-66.112z m-197.024 207.872a860.288 860.288 0 0 1-30.528-80.544 952.384 952.384 0 0 1 87.04-14.464 1161.696 1161.696 0 0 0-56.512 95.04z m57.376 189.504a898.432 898.432 0 0 1-88.448-13.792c8.448-26.56 18.88-54.144 31.104-82.176a1161.792 1161.792 0 0 0 57.344 95.968z m140.8 112.8a900.544 900.544 0 0 1-57.76-67.008c38.016 1.44 76.096 1.44 114.112-0.192a851.552 851.552 0 0 1-56.352 67.2z m195.744-210.208c12.8 28.352 23.648 55.808 32.224 81.888a895.04 895.04 0 0 1-89.536 14.784c20.448-31.424 39.648-63.68 57.28-96.64z m-109.44 101.504a1327.552 1327.552 0 0 1-174.816 0.32 1117.536 1117.536 0 0 1-87.872-147.136 1117.056 1117.056 0 0 1 87.36-146.88c58.24-4.256 116.8-4.288 175.008 0a1252.384 1252.384 0 0 1 87.648 146.304 1252.672 1252.672 0 0 1-87.328 147.392zM730.56 142.944c59.84 33.472 33.216 152.32 20.16 204.032a1011.104 1011.104 0 0 0-128.384-19.68 940.128 940.128 0 0 0-81.152-98.208c40.256-37.6 130.112-119.296 189.376-86.144z" fill="#4096ff" p-id="1707"></path></svg>